<?xml version="1.0" encoding="UTF-8" standalone="no"?>
<svg
   xmlns:dc="http://purl.org/dc/elements/1.1/"
   xmlns:cc="http://creativecommons.org/ns#"
   xmlns:rdf="http://www.w3.org/1999/02/22-rdf-syntax-ns#"
   xmlns:svg="http://www.w3.org/2000/svg"
   xmlns="http://www.w3.org/2000/svg"
   xmlns:sodipodi="http://sodipodi.sourceforge.net/DTD/sodipodi-0.dtd"
   xmlns:inkscape="http://www.inkscape.org/namespaces/inkscape"
   inkscape:export-ydpi="508"
   inkscape:export-xdpi="508"
   inkscape:export-filename="/Users/torben/git/rettij.github.io/rettij/images/rettij-icon.png"
   sodipodi:docname="rettij-icon.svg"
   inkscape:version="1.0beta1 (32d4812, 2019-09-19)"
   id="svg8"
   version="1.1"
   viewBox="0 0 14.000001 14"
   height="14mm"
   width="14mm">
  <defs
     id="defs2" />
  <sodipodi:namedview
     fit-margin-bottom="0"
     fit-margin-right="0"
     fit-margin-left="0"
     fit-margin-top="0"
     lock-margins="false"
     inkscape:window-maximized="1"
     inkscape:window-y="23"
     inkscape:window-x="1440"
     inkscape:window-height="1315"
     inkscape:window-width="2560"
     showgrid="false"
     inkscape:document-rotation="0"
     inkscape:current-layer="layer1"
     inkscape:document-units="mm"
     inkscape:cy="66.061352"
     inkscape:cx="-27.919836"
     inkscape:zoom="2.1144676"
     inkscape:pageshadow="2"
     inkscape:pageopacity="0.0"
     borderopacity="1.0"
     bordercolor="#666666"
     pagecolor="#ffffff"
     id="base" />
  <metadata
     id="metadata5">
    <rdf:RDF>
      <cc:Work
         rdf:about="">
        <dc:format>image/svg+xml</dc:format>
        <dc:type
           rdf:resource="http://purl.org/dc/dcmitype/StillImage" />
        <dc:title></dc:title>
      </cc:Work>
    </rdf:RDF>
  </metadata>
  <g
     transform="translate(-15.12079,-117.47443)"
     id="layer1"
     inkscape:groupmode="layer"
     inkscape:label="Ebene 1">
    <g
       id="g978"
       transform="matrix(0.22335319,-0.03091039,0.03091039,0.22335319,5.3851106,100.25937)">
      <path
         sodipodi:nodetypes="cscsscscscscscsscscc"
         inkscape:connector-curvature="0"
         id="path974"
         d="m 59.916761,108.92185 c 0,0 -2.55105,-9.178945 1.29558,-9.657905 2.01827,-0.2513 1.29557,7.184545 1.29557,7.184545 0,0 0.63091,-6.39097 2.98743,-9.517335 0.79137,-1.04991 2.27316,-1.58999 3.32684,-1.58597 2.69696,0.0103 -3.95671,10.666195 -3.95671,10.666195 0,0 10.73947,-18.246055 18.50059,-14.653245 3.30935,1.53199 -3.09328,5.20142 -3.09328,5.20142 0,0 4.40951,-0.48538 4.33457,0.82045 -0.10653,1.85621 -11.9575,5.374655 -11.9575,5.374655 6.69865,-0.40353 10.60196,-1.23445 10.6546,0.93786 0.0346,1.4282 -3.54617,2.4069 -3.54617,2.4069 0,0 1.44172,1.21496 -0.52922,1.8304 -0.88892,0.27758 -2.7711,-0.2958 -2.7711,-0.2958 0,0 -0.10791,1.47439 -0.62996,1.87939 -0.8206,0.63661 -3.56889,-0.70259 -5.71814,-0.62407 -2.28451,0.0835 -3.95079,1.56364 -3.95079,1.56364 0,0 1.55889,0.0546 1.17176,1.31037 -0.30861,1.00109 -3.7629,0.33854 -3.7629,0.33854 z"
         style="fill:#008000;stroke:#000000;stroke-width:1.5;stroke-linecap:butt;stroke-linejoin:round;stroke-miterlimit:4;stroke-dasharray:none;stroke-opacity:1" />
      <path
         sodipodi:nodetypes="ssscsss"
         inkscape:connector-curvature="0"
         id="path976"
         d="m 59.916761,108.92185 c -5.34371,-4.35316 -16.22243,-3.66544 -20.61138,1.64891 -7.6608,9.27606 -2.34599,14.49202 -1.41336,22.14253 0.49475,4.05849 -2.42536,9.42615 -2.42536,9.42615 0,0 5.82817,-5.56743 11.14104,-4.83276 10.32477,1.42772 15.61631,-2.60896 18.8447,-7.18454 4.03266,-5.71549 0.875,-15.97797 -5.53564,-21.20029 z"
         style="fill:#d40000;stroke:#000000;stroke-width:1.5;stroke-linecap:butt;stroke-linejoin:round;stroke-miterlimit:4;stroke-dasharray:none;stroke-opacity:1" />
    </g>
  </g>
</svg>
